<?xml version="1.0" standalone="no"?>
<!DOCTYPE svg PUBLIC "-//W3C//DTD SVG 20010904//EN"
 "http://www.w3.org/TR/2001/REC-SVG-20010904/DTD/svg10.dtd">
<svg version="1.0" xmlns="http://www.w3.org/2000/svg"
 width="783.000000pt" height="783.000000pt" viewBox="0 0 783.000000 783.000000"
 preserveAspectRatio="xMidYMid meet">
<metadata>
Created by potrace 1.11, written by Peter Selinger 2001-2013
</metadata>
<g transform="translate(0.000000,783.000000) scale(0.100000,-0.100000)"
fill="#000000" stroke="none">
<path d="M3758 6605 c-2 -2 -38 -6 -81 -10 -43 -3 -90 -8 -105 -11 -39 -6 -93
-15 -122 -21 -14 -3 -34 -6 -45 -8 -83 -11 -377 -97 -402 -117 -7 -6 -13 -8
-13 -5 0 13 -247 -100 -369 -168 -128 -71 -325 -208 -431 -299 -19 -17 -101
-97 -181 -178 -98 -99 -154 -148 -168 -148 -14 0 -21 -6 -21 -20 0 -20 -7 -20
-876 -20 l-876 0 98 -96 c55 -52 189 -182 299 -289 110 -106 270 -261 355
-344 l155 -151 -145 -141 c-80 -78 -257 -250 -394 -383 -399 -386 -379 -366
-353 -367 12 -1 27 0 32 1 23 5 106 3 111 -3 4 -3 14 -2 23 3 10 5 23 5 31 0
7 -4 24 -4 36 0 14 6 26 5 29 0 3 -5 18 -5 35 0 17 5 30 6 30 2 0 -4 27 -7 60
-7 33 0 60 3 60 7 0 4 13 3 29 -2 16 -4 32 -6 35 -3 7 8 105 7 113 -1 3 -3 13
-1 22 4 10 5 23 5 31 0 7 -4 24 -4 36 0 14 6 26 5 29 0 3 -5 18 -5 34 0 16 4
32 6 35 3 7 -8 116 -9 116 -1 0 4 13 3 29 -2 16 -4 32 -6 35 -3 7 7 116 9 116
3 0 -3 12 -6 28 -5 22 0 27 -5 29 -25 9 -140 13 -179 28 -275 3 -16 7 -48 10
-70 9 -59 21 -120 25 -120 1 0 3 -11 5 -25 9 -68 107 -375 126 -395 5 -5 9
-15 9 -23 0 -22 113 -250 175 -353 164 -271 388 -529 620 -714 21 -16 52 -41
69 -55 146 -118 430 -276 655 -365 159 -62 432 -134 571 -150 25 -3 61 -7 80
-10 188 -24 517 -24 640 0 14 3 45 7 70 10 25 2 56 7 70 10 13 2 41 7 61 10
20 3 50 10 68 15 17 5 34 9 36 9 3 1 6 1 8 2 1 0 9 2 17 4 80 19 214 62 300
95 58 23 114 44 125 47 11 4 23 10 26 15 3 5 16 10 27 11 12 1 22 4 22 7 0 4
28 19 62 35 33 16 92 47 130 69 38 23 76 46 86 51 21 13 133 87 147 98 6 4 20
15 32 25 12 10 34 27 49 38 37 26 201 170 244 215 80 82 173 186 189 209 9 13
26 35 39 49 23 26 182 256 182 264 0 3 19 38 43 79 23 40 50 89 59 108 22 44
97 210 97 213 0 3 8 27 41 120 17 48 33 97 34 110 2 12 6 29 9 37 7 17 27 95
33 125 2 11 6 31 9 45 3 14 8 39 10 55 7 40 13 70 15 70 1 0 3 11 4 25 2 14 6
48 9 75 4 28 9 91 13 140 3 50 10 94 15 99 6 6 9 5 9 -3 0 -7 4 -10 8 -7 5 3
30 5 58 5 27 1 78 1 114 2 36 0 71 0 78 0 6 -1 19 -1 27 -1 8 0 23 0 33 0 9 0
35 0 57 1 22 1 47 1 55 0 8 -1 42 -1 75 0 33 0 66 0 73 0 6 -1 19 -1 27 -1 8
0 23 0 33 0 9 0 37 0 62 1 25 1 52 1 60 0 46 -3 142 -1 150 4 6 4 10 1 10 -5
0 -7 6 -8 19 -1 10 6 21 7 25 4 8 -8 102 -7 116 2 5 3 10 1 10 -5 0 -7 6 -8
19 -1 10 6 21 7 25 4 3 -3 6 1 6 9 0 8 -13 26 -29 39 -16 13 -58 51 -93 84
-35 33 -109 101 -163 150 -55 50 -110 100 -122 112 -13 12 -23 21 -23 19 0 -1
-24 20 -53 48 -29 28 -95 89 -146 136 -135 122 -217 198 -275 253 l-51 47 49
45 c27 25 89 82 138 127 50 46 102 94 116 107 15 13 68 61 117 107 50 45 104
95 120 110 17 15 72 66 124 113 200 184 227 209 255 235 l29 26 -852 0 c-468
0 -850 3 -850 8 4 25 -4 32 -40 32 -30 0 -42 5 -55 24 -19 30 -235 247 -296
298 -25 21 -70 57 -100 80 -30 23 -57 45 -60 48 -10 12 -101 70 -110 70 -4 0
-10 4 -12 8 -3 7 -73 52 -148 95 -19 11 -80 42 -135 69 -55 27 -108 53 -117
58 -10 6 -22 10 -28 10 -6 0 -29 9 -53 20 -36 17 -213 78 -242 85 -5 1 -29 7
-51 13 -23 7 -64 17 -90 22 -27 6 -60 13 -74 16 -61 13 -178 31 -260 40 -46 5
-448 13 -452 9z"/>
</g>
</svg>
