<?xml version="1.0" encoding="UTF-8" standalone="no"?>
<!-- Created with Inkscape (http://www.inkscape.org/) -->

<svg
   xmlns:dc="http://purl.org/dc/elements/1.1/"
   xmlns:cc="http://creativecommons.org/ns#"
   xmlns:rdf="http://www.w3.org/1999/02/22-rdf-syntax-ns#"
   xmlns:svg="http://www.w3.org/2000/svg"
   xmlns="http://www.w3.org/2000/svg"
   xmlns:sodipodi="http://sodipodi.sourceforge.net/DTD/sodipodi-0.dtd"
   xmlns:inkscape="http://www.inkscape.org/namespaces/inkscape"
   width="100.47"
   height="102.34"
   id="svg2"
   version="1.1"
   inkscape:version="0.47 r22583"
   sodipodi:docname="United_Way_of_Canada.svg">
  <defs
     id="defs4">
    <inkscape:perspective
       sodipodi:type="inkscape:persp3d"
       inkscape:vp_x="0 : 526.18109 : 1"
       inkscape:vp_y="0 : 1000 : 0"
       inkscape:vp_z="744.09448 : 526.18109 : 1"
       inkscape:persp3d-origin="372.04724 : 350.78739 : 1"
       id="perspective10" />
    <clipPath
       id="clipPath3188"
       clipPathUnits="userSpaceOnUse">
      <path
         id="path3190"
         d="m 172.757,383.974 105,0 0,-146.69 -105,0 0,146.69 z" />
    </clipPath>
    <clipPath
       id="clipPath3176"
       clipPathUnits="userSpaceOnUse">
      <path
         id="path3178"
         d="m 37.499,366.696 123,0 0,-143.772 -123,0 0,143.772 z" />
    </clipPath>
    <clipPath
       id="clipPath3164"
       clipPathUnits="userSpaceOnUse">
      <path
         id="path3166"
         d="m 172.757,555.5 105,0 0,-159.526 -105,0 0,159.526 z" />
    </clipPath>
    <clipPath
       id="clipPath3152"
       clipPathUnits="userSpaceOnUse">
      <path
         id="path3154"
         d="m 37.499,555.5 123,0 0,-175.217 -123,0 0,175.217 z" />
    </clipPath>
    <clipPath
       id="clipPath3140"
       clipPathUnits="userSpaceOnUse">
      <path
         id="path3142"
         d="m 291.257,555.5 105,0 0,-116.5 -105,0 0,116.5 z" />
    </clipPath>
    <clipPath
       id="clipPath3128"
       clipPathUnits="userSpaceOnUse">
      <path
         id="path3130"
         d="m 291.257,426 105,0 0,-114 -105,0 0,114 z" />
    </clipPath>
    <clipPath
       id="clipPath3116"
       clipPathUnits="userSpaceOnUse">
      <path
         id="path3118"
         d="m 291.257,300 105,0 0,-114 -105,0 0,114 z" />
    </clipPath>
    <clipPath
       id="clipPath3104"
       clipPathUnits="userSpaceOnUse">
      <path
         id="path3106"
         d="m 291.257,174 105,0 0,-118.5 -105,0 0,118.5 z" />
    </clipPath>
    <clipPath
       id="clipPath3092"
       clipPathUnits="userSpaceOnUse">
      <path
         id="path3094"
         d="m 172.757,55.5 104.833,0 0,167.166 -104.833,0 0,-167.166 z" />
    </clipPath>
    <clipPath
       id="clipPath3080"
       clipPathUnits="userSpaceOnUse">
      <path
         id="path3082"
         d="m 37.499,210.643 122.615,0 0,-155.143 -122.615,0 0,155.143 z" />
    </clipPath>
    <clipPath
       id="clipPath3050"
       clipPathUnits="userSpaceOnUse">
      <path
         id="path3052"
         d="m 181.743,880.85 147.666,0 0,-250.155 -147.666,0 0,250.155 z" />
    </clipPath>
    <clipPath
       id="clipPath2942"
       clipPathUnits="userSpaceOnUse">
      <path
         id="path2944"
         d="m 630,1206 144,0 0,-576 -144,0 0,576 z" />
    </clipPath>
    <clipPath
       id="clipPath2932"
       clipPathUnits="userSpaceOnUse">
      <path
         id="path2934"
         d="m 330.205,880.979 148.795,0 0,-249.384 -148.795,0 0,249.384 z" />
    </clipPath>
    <clipPath
       id="clipPath2922"
       clipPathUnits="userSpaceOnUse">
      <path
         id="path2924"
         d="m 480.523,881.117 148.648,0 0,-249.037 -148.648,0 0,249.037 z" />
    </clipPath>
    <clipPath
       id="clipPath2912"
       clipPathUnits="userSpaceOnUse">
      <path
         id="path2914"
         d="m 182.997,1205.15 221.413,0 0,-323.997 -221.413,0 0,323.997 z" />
    </clipPath>
    <clipPath
       id="clipPath2902"
       clipPathUnits="userSpaceOnUse">
      <path
         id="path2904"
         d="m 404.557,1204.68 224.108,0 0,-323.527 -224.108,0 0,323.527 z" />
    </clipPath>
    <clipPath
       id="clipPath2832"
       clipPathUnits="userSpaceOnUse">
      <path
         id="path2834"
         d="m 630,594 144,0 0,-576 -144,0 0,576 z" />
    </clipPath>
    <inkscape:perspective
       id="perspective2824"
       inkscape:persp3d-origin="0.5 : 0.33333333 : 1"
       inkscape:vp_z="1 : 0.5 : 1"
       inkscape:vp_y="0 : 1000 : 0"
       inkscape:vp_x="0 : 0.5 : 1"
       sodipodi:type="inkscape:persp3d" />
  </defs>
  <sodipodi:namedview
     id="base"
     pagecolor="#ffffff"
     bordercolor="#666666"
     borderopacity="1.0"
     inkscape:pageopacity="0.0"
     inkscape:pageshadow="2"
     inkscape:zoom="2.7610489"
     inkscape:cx="84.90472"
     inkscape:cy="30.68722"
     inkscape:document-units="px"
     inkscape:current-layer="layer1"
     showgrid="false"
     inkscape:window-width="1680"
     inkscape:window-height="1000"
     inkscape:window-x="-8"
     inkscape:window-y="-8"
     inkscape:window-maximized="1" />
  <metadata
     id="metadata7">
    <rdf:RDF>
      <cc:Work
         rdf:about="">
        <dc:format>image/svg+xml</dc:format>
        <dc:type
           rdf:resource="http://purl.org/dc/dcmitype/StillImage" />
        <dc:title />
      </cc:Work>
    </rdf:RDF>
  </metadata>
  <g
     inkscape:label="Layer 1"
     inkscape:groupmode="layer"
     id="layer1"
     transform="translate(1233.1401,-489.52835)">
    <g
       id="g2828"
       transform="matrix(0,1.25,1.25,0,-412.18189,35.805321)">
      <g
         id="g2830"
         clip-path="url(#clipPath2832)">
        <g
           id="g2836"
           transform="matrix(0,577.992,-145.932,0,774.666,16.584)" />
      </g>
    </g>
    <g
       id="g2838"
       transform="matrix(0,1.25,1.25,0,-1135.2194,557.31839)">
      <path
         d="m 0,0 c -1.783,-1.561 -1.763,-3.817 0.054,-6.036 1.907,-2.333 11.51,-13.126 14.665,-16.674 l 0.692,-0.777 c 1.531,-1.723 1.688,-2.298 2.033,-3.558 l 0.161,-0.58 c 0.42,-1.453 -0.095,-3.228 -1.281,-4.413 C 14.932,-33.431 3.96,-43.061 3.494,-43.47 l -0.396,-0.347 -0.979,1.469 0.297,0.267 c 0.116,0.104 11.647,10.484 12.79,11.627 0.957,0.957 0.528,3.274 -0.495,4.502 -1.041,1.251 -3.339,2.537 -4.956,1.323 -1.787,-1.339 -15.92,-14.529 -17.417,-16.025 l -0.476,-0.459 c -1.692,-1.603 -5.211,-4.94 -5.211,-10.858 0,-0.78 -0.028,-1.356 -0.391,-1.694 -0.292,-0.272 -0.685,-0.282 -1.031,-0.259 -8.132,0.582 -14.502,7.367 -14.502,15.448 0,7.651 6.749,14.859 14.175,15.121 l 1.089,-0.026 c 0,0 0.957,0.044 0.957,0.045 0.638,0.079 0.877,0.902 0.877,1.404 0,0.578 -0.483,1.401 -0.82,1.401 l -0.492,0.009 -1.373,0.012 c -9.266,0 -17.093,-8.225 -17.093,-17.962 0,-9.639 7.415,-17.374 17.247,-17.994 0.684,-0.043 1.124,-0.594 1.124,-1.406 0,-0.388 -0.14,-0.728 -0.394,-0.955 -0.171,-0.154 -0.471,-0.324 -0.901,-0.276 -11.008,0.556 -19.631,9.633 -19.631,20.665 0,11.395 8.811,20.666 19.64,20.666 l 2.976,0.02 0.876,0.007 c 0.724,0 1.053,0.848 1.053,1.636 0,0.843 -0.552,1.479 -1.285,1.479 l -3.61,0.037 c -12.586,0 -22.824,-10.697 -22.824,-23.845 0,-13.148 10.24,-23.845 22.826,-23.845 0.822,0 1.274,-0.473 1.274,-1.332 0,-0.433 -0.111,-0.742 -0.341,-0.944 -0.296,-0.264 -0.686,-0.252 -0.935,-0.217 -14.918,0 -25.314,13.892 -25.314,26.36 0,14.285 11.352,26.086 25.305,26.306 l 4.305,-0.023 1.759,-0.022 c 1.205,0 1.634,1.086 1.634,2.101 0,1.12 -0.521,2.254 -1.518,2.254 l -6.177,0.009 c -16.416,0 -29.771,-13.738 -29.771,-30.625 0,-16.885 13.359,-30.624 29.78,-30.624 1.119,0 1.273,-0.695 1.273,-1.446 0,-0.511 -0.221,-1.121 -1.291,-1.121 -18.065,0.628 -32.215,15.286 -32.215,33.374 0,8.872 3.44,17.18 9.688,23.392 6.071,6.036 14.077,9.332 22.542,9.287 l 4.374,-0.047 3.66,-0.033 c 1.089,0 2.915,0.408 2.915,3.148 0,2.131 -0.871,3.137 -2.828,3.266 -1.104,0.071 -3.055,0.059 -4.941,0.048 l -3.301,-0.001 c -10.204,0.108 -19.847,-3.813 -27.152,-11.041 -7.519,-7.44 -11.66,-17.389 -11.66,-28.019 0,-21.793 17.522,-39.524 39.059,-39.524 l 25.141,0 c 1.867,0 1.867,0 1.867,1.799 0,1.856 0,6.782 0.237,8.673 l 0.076,0.926 c 0.184,2.664 0.613,8.901 5.376,14.906 5.299,6.683 8.516,11.281 8.516,18.81 0,7.139 -3.234,12.518 -5.947,15.771 C 18.145,-14.003 6.641,-1.116 5.425,0.098 4.279,1.244 1.66,1.45 0,0"
         style="fill:#ed1849;fill-opacity:1;fill-rule:nonzero;stroke:none"
         id="path2840" />
    </g>
    <g
       id="g2842"
       transform="matrix(0,1.25,1.25,0,-1182.2357,526.39839)">
      <path
         d="M 0,0 C 0,-1.016 0.828,-1.843 1.844,-1.843 2.86,-1.843 3.688,-1.016 3.688,0 3.688,1.017 2.86,1.845 1.844,1.845 0.828,1.845 0,1.017 0,0"
         style="fill:#ed1849;fill-opacity:1;fill-rule:nonzero;stroke:none"
         id="path2844" />
    </g>
    <g
       id="g2846"
       transform="matrix(0,1.25,1.25,0,-1180.2869,538.46089)">
      <path
         d="m 0,0 -0.078,0.028 c -0.035,0.013 -0.869,0.325 -1.41,0.837 L -6.377,5.854 C -6.948,6.437 -7.887,6.447 -8.469,5.876 -8.752,5.598 -8.909,5.228 -8.913,4.834 -8.917,4.438 -8.766,4.066 -8.49,3.784 l 4.446,-4.537 -0.003,0.004 c 0.481,-0.483 0.488,-1.08 0.007,-1.609 l -4.45,-4.54 c -0.276,-0.283 -0.427,-0.657 -0.423,-1.052 0.004,-0.395 0.161,-0.766 0.444,-1.042 0.282,-0.277 0.655,-0.426 1.05,-0.422 0.396,0.004 0.766,0.161 1.042,0.444 0,0 4.889,4.99 4.86,4.958 0.846,1.042 1.453,1.067 1.571,1.053 l 5.569,0 c 0.816,0 1.479,0.662 1.479,1.48 C 7.102,-0.665 6.439,0 5.623,0 L 0,0"
         style="fill:#ed1849;fill-opacity:1;fill-rule:nonzero;stroke:none"
         id="path2848" />
    </g>
    <g
       id="g2850"
       transform="matrix(0,1.25,1.25,0,-1163.6757,545.45964)">
      <path
         d="m 0,0 c -0.423,0 -0.827,-0.154 -1.145,-0.437 -0.708,-0.634 -0.769,-1.724 -0.133,-2.436 0,0 6.913,-7.935 7.486,-8.593 0.493,0.452 2.102,1.928 2.575,2.362 -1.411,1.605 -7.497,8.53 -7.497,8.53 C 0.98,-0.231 0.558,-0.029 0.099,-0.002 0.065,0 0.033,0 0,0"
         style="fill:#ed1849;fill-opacity:1;fill-rule:nonzero;stroke:none"
         id="path2852" />
    </g>
    <g
       id="g2854"
       transform="matrix(0,1.25,1.25,0,-1155.7944,549.42589)">
      <path
         d="m 0,0 c -0.587,0 -1.146,-0.214 -1.586,-0.606 -0.476,-0.426 -0.756,-1.01 -0.792,-1.647 -0.036,-0.635 0.177,-1.248 0.601,-1.722 0,0 8.311,-9.288 8.885,-9.929 0.53,0.473 3.027,2.706 3.557,3.177 -1.561,1.746 -8.884,9.93 -8.884,9.93 C 1.357,-0.321 0.773,-0.04 0.137,-0.004 0.091,-0.002 0.046,0 0,0"
         style="fill:#ed1849;fill-opacity:1;fill-rule:nonzero;stroke:none"
         id="path2856" />
    </g>
    <g
       id="g2858"
       transform="matrix(0,1.25,1.25,0,-1145.6919,555.05589)">
      <path
         d="m 0,0 c -0.072,0.004 -0.143,0.006 -0.214,0.006 -0.861,0 -1.693,-0.29 -2.258,-0.795 -1.269,-1.136 -1.518,-3.464 -0.493,-4.613 0,0 9.992,-11.179 10.584,-11.841 0.606,0.552 1.49,1.275 2.181,1.837 l 0.855,0.706 c 0.514,0.476 1.294,0.716 2.256,0.716 0.294,0 0.615,-0.036 0.94,-0.081 -0.976,1.047 -2.312,2.479 -2.317,2.484 L 2.069,-0.903 C 1.598,-0.377 0.844,-0.047 0,0"
         style="fill:#ed1849;fill-opacity:1;fill-rule:nonzero;stroke:none"
         id="path2860" />
    </g>
    <g
       id="g2862"
       transform="matrix(0,1.25,1.25,0,-1145.1207,582.66589)">
      <path
         d="M 0,0 C 0.084,0 0.147,-0.022 0.189,-0.065 0.232,-0.106 0.253,-0.17 0.253,-0.253 l 0,-0.753 -0.503,0 0,0.753 C -0.25,-0.085 -0.167,0 0,0 z M 0.621,0.374 C 0.542,0.29 0.502,0.166 0.502,0 0.483,0.166 0.431,0.29 0.347,0.374 0.263,0.458 0.147,0.499 0,0.499 l -0.25,0 C -0.387,0.499 -0.505,0.449 -0.604,0.35 -0.702,0.252 -0.752,0.134 -0.752,0 l 0,-1.504 2.509,0 0,0.498 -1.005,0 0,0.502 c 0,0.138 0.05,0.255 0.149,0.354 C 0.999,-0.051 1.118,0 1.255,0 l 0.502,0 0,0.499 -0.776,0 c -0.16,0 -0.28,-0.041 -0.36,-0.125 z m -1.933,-2.438 c 0.295,-0.298 0.649,-0.446 1.062,-0.446 l 1.505,0 c 0.411,0 0.765,0.148 1.06,0.444 0.296,0.295 0.445,0.648 0.445,1.06 l 0,1.003 C 2.76,0.409 2.61,0.762 2.314,1.058 2.017,1.352 1.664,1.502 1.255,1.502 l -1.505,0 c -0.411,0 -0.764,-0.15 -1.06,-0.444 -0.296,-0.296 -0.444,-0.649 -0.444,-1.061 l 0,-1.003 c 0,-0.409 0.147,-0.763 0.442,-1.058 z M 1.96,0.703 C 2.158,0.506 2.257,0.271 2.257,-0.003 l 0,-1.003 C 2.257,-1.283 2.158,-1.517 1.96,-1.713 1.762,-1.91 1.527,-2.008 1.255,-2.008 l -1.505,0 c -0.274,0 -0.51,0.098 -0.706,0.296 -0.197,0.196 -0.296,0.433 -0.296,0.706 l 0,1.003 c 0,0.274 0.099,0.509 0.296,0.706 0.196,0.198 0.432,0.294 0.706,0.294 l 1.505,0 c 0.272,0 0.507,-0.096 0.705,-0.294"
         style="fill:#231f20;fill-opacity:1;fill-rule:nonzero;stroke:none"
         id="path2864" />
    </g>
    <g
       id="g2898"
       transform="matrix(0,1.25,1.25,0,-412.18189,35.805321)">
      <g
         id="g2900"
         clip-path="url(#clipPath2902)">
        <g
           id="g2906"
           transform="matrix(0,324.252,-224.172,0,628.686,881.124)" />
      </g>
    </g>
    <g
       id="g2908"
       transform="matrix(0,1.25,1.25,0,-412.18189,35.805321)">
      <g
         id="g2910"
         clip-path="url(#clipPath2912)">
        <g
           id="g2916"
           transform="matrix(0,326.592,-221.532,0,404.466,879.564)" />
      </g>
    </g>
    <g
       id="g2918"
       transform="matrix(0,1.25,1.25,0,-412.18189,35.805321)">
      <g
         id="g2920"
         clip-path="url(#clipPath2922)">
        <g
           id="g2926"
           transform="matrix(0,249.072,-150.612,0,629.706,632.064)" />
      </g>
    </g>
    <g
       id="g2928"
       transform="matrix(0,1.25,1.25,0,-412.18189,35.805321)">
      <g
         id="g2930"
         clip-path="url(#clipPath2932)">
        <g
           id="g2936"
           transform="matrix(0,249.432,-150.672,0,479.646,631.584)" />
      </g>
    </g>
    <g
       id="g2938"
       transform="matrix(0,1.25,1.25,0,-412.18189,35.805321)">
      <g
         id="g2940"
         clip-path="url(#clipPath2942)">
        <g
           id="g2946"
           transform="matrix(0,577.992,-145.932,0,774.666,628.584)" />
      </g>
    </g>
    <g
       id="g3046"
       transform="matrix(0,1.25,1.25,0,-412.18189,35.805321)">
      <g
         id="g3048"
         clip-path="url(#clipPath3050)">
        <g
           id="g3054"
           transform="matrix(0,251.532,-148.812,0,329.466,629.364)" />
      </g>
    </g>
    <g
       id="g3076"
       transform="matrix(0,1.25,1.25,0,-412.18189,35.805321)">
      <g
         id="g3078"
         clip-path="url(#clipPath3080)">
        <g
           id="g3084"
           transform="matrix(0,156.072,-122.712,0,160.146,55.464)" />
      </g>
    </g>
    <g
       id="g3088"
       transform="matrix(0,1.25,1.25,0,-412.18189,35.805321)">
      <g
         id="g3090"
         clip-path="url(#clipPath3092)">
        <g
           id="g3096"
           transform="matrix(0,167.232,-104.892,0,277.626,55.464)" />
      </g>
    </g>
    <g
       id="g3100"
       transform="matrix(0,1.25,1.25,0,-412.18189,35.805321)">
      <g
         id="g3102"
         clip-path="url(#clipPath3104)">
        <g
           id="g3108"
           transform="matrix(0,119.112,-105.672,0,396.906,55.464)" />
      </g>
    </g>
    <g
       id="g3112"
       transform="matrix(0,1.25,1.25,0,-412.18189,35.805321)">
      <g
         id="g3114"
         clip-path="url(#clipPath3116)">
        <g
           id="g3120"
           transform="matrix(0,114.792,-105.672,0,396.906,185.964)" />
      </g>
    </g>
    <g
       id="g3124"
       transform="matrix(0,1.25,1.25,0,-412.18189,35.805321)">
      <g
         id="g3126"
         clip-path="url(#clipPath3128)">
        <g
           id="g3132"
           transform="matrix(0,114.792,-105.672,0,396.906,311.964)" />
      </g>
    </g>
    <g
       id="g3136"
       transform="matrix(0,1.25,1.25,0,-412.18189,35.805321)">
      <g
         id="g3138"
         clip-path="url(#clipPath3140)">
        <g
           id="g3144"
           transform="matrix(0,117.192,-105.672,0,396.906,438.984)" />
      </g>
    </g>
    <g
       id="g3148"
       transform="matrix(0,1.25,1.25,0,-412.18189,35.805321)">
      <g
         id="g3150"
         clip-path="url(#clipPath3152)">
        <g
           id="g3156"
           transform="matrix(0,176.232,-123.732,0,161.166,380.244)" />
      </g>
    </g>
    <g
       id="g3160"
       transform="matrix(0,1.25,1.25,0,-412.18189,35.805321)">
      <g
         id="g3162"
         clip-path="url(#clipPath3164)">
        <g
           id="g3168"
           transform="matrix(0,160.392,-105.672,0,278.406,395.964)" />
      </g>
    </g>
    <g
       id="g3172"
       transform="matrix(0,1.25,1.25,0,-412.18189,35.805321)">
      <g
         id="g3174"
         clip-path="url(#clipPath3176)">
        <g
           id="g3180"
           transform="matrix(0,143.892,-123.312,0,160.746,222.864)" />
      </g>
    </g>
    <g
       id="g3184"
       transform="matrix(0,1.25,1.25,0,-412.18189,35.805321)">
      <g
         id="g3186"
         clip-path="url(#clipPath3188)">
        <g
           id="g3192"
           transform="matrix(0,147.432,-105.672,0,278.406,237.264)" />
      </g>
    </g>
  </g>
</svg>
