<?xml version="1.0" encoding="utf-8"?>
<!-- Generator: Adobe Illustrator 19.0.0, SVG Export Plug-In . SVG Version: 6.00 Build 0)  -->
<svg version="1.1" id="Layer_1" xmlns="http://www.w3.org/2000/svg" xmlns:xlink="http://www.w3.org/1999/xlink" x="0px" y="0px"
	 viewBox="0 0 782.5 560" style="enable-background:new 0 0 782.5 560;" xml:space="preserve">
<style type="text/css">
	.st0{fill:#006837;}
	.st1{fill:none;stroke:#FFFFFF;stroke-width:23;stroke-miterlimit:10;}
	.st2{fill:#FFFFFF;}
	.st3{fill:#006837;stroke:#FFFFFF;stroke-width:3;stroke-miterlimit:10;}
	.st4{fill:#006837;stroke:#FFFFFF;stroke-width:4;stroke-miterlimit:10;}
	.st5{display:none;opacity:0.24;fill:#FFFFFF;}
</style>
<circle id="XMLID_1_" class="st0" cx="393.6" cy="280.3" r="269.2"/>
<circle id="XMLID_2_" class="st1" cx="393.6" cy="280.3" r="237.2"/>
<ellipse id="XMLID_17_" class="st2" cx="395.1" cy="280.1" rx="216.7" ry="217.5"/>
<g id="XMLID_14_">
	<path id="XMLID_5_" class="st3" d="M464.4,467.3l-2,2c-2.5,2.5-6.5,2.5-9,0L347.9,363.8c-2.5-2.5-2.5-6.5,0-9l2-2
		c2.5-2.5,6.5-2.5,9,0l105.5,105.5C466.8,460.8,466.8,464.8,464.4,467.3z"/>
</g>
<g id="XMLID_13_">
	<path id="XMLID_10_" class="st4" d="M331.9,467.3l-2.2-2.2c-2.5-2.5-2.5-6.5,0-9l109.5-109.5c2.5-2.5,6.5-2.5,9,0l2.2,2.2
		c2.5,2.5,2.5,6.5,0,9L340.8,467.3C338.4,469.7,334.3,469.7,331.9,467.3z"/>
	
		<ellipse id="XMLID_11_" transform="matrix(-0.7071 -0.7071 0.7071 -0.7071 544.5093 902.2715)" class="st4" cx="459.1" cy="338.4" rx="31.2" ry="29.3"/>
	<path id="XMLID_12_" class="st4" d="M448.7,375.9l-27.1-27.1c-4.7-4.7-4.7-12.3,0-17l11.7-11.7c4.7-4.7,12.3-4.7,17,0l27.1,27.1
		c4.7,4.7,4.7,12.3,0,17l-11.7,11.7C461,380.6,453.3,380.6,448.7,375.9z"/>
</g>
<circle id="XMLID_3_" class="st3" cx="343.9" cy="350.1" r="30.9"/>
<path id="XMLID_9_" class="st0" d="M303.5,342.4l32.8-32.8c2.4-2.4,6.4-2.4,8.8,0l19.6,19.6c2.4,2.4,2.4,6.4,0,8.8L332,370.9
	c-2.4,2.4-6.4,2.4-8.8,0l-19.6-19.6C301.1,348.9,301.1,344.9,303.5,342.4z"/>
<path id="XMLID_8_" class="st2" d="M360.3,351.3L360.3,351.3c-2,2-5.3,2-7.3,0l-36.1-36.1c-2-2-2-5.3,0-7.3h0c2-2,5.3-2,7.3,0
	l36.1,36.1C362.3,346.1,362.3,349.3,360.3,351.3z"/>
<path id="XMLID_7_" class="st2" d="M344.9,368.1L344.9,368.1c-2,2-5.3,2-7.3,0L301.5,332c-2-2-2-5.3,0-7.3l0,0c2-2,5.3-2,7.3,0
	l36.1,36.1C346.9,362.8,346.9,366.1,344.9,368.1z"/>
<rect id="XMLID_18_" class="st5" width="782.5" height="560"/>
<g id="XMLID_4_">
	<rect id="XMLID_20_" x="181.8" y="108" class="st2" width="426" height="6"/>
</g>
<g id="XMLID_15_">
	<rect id="XMLID_16_" x="124.8" y="288" class="st2" width="538" height="6"/>
</g>
<polygon id="XMLID_19_" class="st0" points="682.9,199.1 777.8,112 6.8,112 97.6,200 5.8,289 778.8,289 778.8,286.9 "/>
<g id="XMLID_21_">
	<path id="XMLID_22_" class="st2" d="M264.5,167.2v79.2h-9.1c-2.1,0-3.4-1-4.1-3l-1.1-8c-1.7,1.8-3.5,3.5-5.4,5
		c-1.9,1.5-3.9,2.8-6,3.9c-2.1,1.1-4.4,1.9-6.8,2.5c-2.4,0.6-5,0.9-7.7,0.9c-4.4,0-8.2-0.7-11.5-2.2c-3.3-1.5-6.1-3.5-8.3-6.1
		c-2.2-2.6-3.9-5.8-5.1-9.5c-1.1-3.7-1.7-7.8-1.7-12.2v-50.5H213v50.5c0,5.7,1.3,10.1,3.9,13.2c2.6,3.1,6.6,4.7,11.9,4.7
		c3.9,0,7.5-0.9,10.9-2.8c3.4-1.8,6.6-4.4,9.5-7.6v-58H264.5z"/>
	<path id="XMLID_24_" class="st2" d="M291,246.5v-66.8l-8.3-1c-1.2-0.3-2.2-0.7-2.9-1.3c-0.8-0.6-1.1-1.5-1.1-2.6v-6.3H291v-7.2
		c0-4.5,0.6-8.6,1.9-12.1c1.3-3.5,3.2-6.5,5.6-9c2.4-2.5,5.3-4.3,8.7-5.6c3.4-1.3,7.2-1.9,11.5-1.9c3.6,0,6.9,0.5,9.9,1.6l-0.3,7.6
		c-0.1,0.7-0.3,1.2-0.6,1.5c-0.4,0.3-0.8,0.6-1.4,0.7c-0.6,0.2-1.3,0.2-2.2,0.3c-0.9,0-1.8,0-2.8,0c-2.3,0-4.5,0.3-6.4,0.9
		c-1.9,0.6-3.6,1.5-4.9,2.9c-1.4,1.4-2.4,3.1-3.1,5.3c-0.7,2.2-1.1,5-1.1,8.2v6.7h22.2v11.1h-21.8v66.9H291z"/>
	<path id="XMLID_26_" class="st2" d="M340.8,246.5v-79.2h9.1c2.1,0,3.5,1,4,3l1.1,7.6c2.9-3.5,6.1-6.3,9.7-8.5
		c3.6-2.2,7.7-3.3,12.5-3.3c5.3,0,9.5,1.4,12.8,4.3c3.3,2.9,5.7,6.8,7.2,11.7c1.1-2.8,2.6-5.2,4.4-7.3c1.8-2,3.8-3.7,6.1-5
		c2.2-1.3,4.6-2.3,7.1-2.9c2.5-0.6,5.1-0.9,7.7-0.9c4.2,0,8,0.7,11.3,2c3.3,1.3,6.1,3.3,8.4,5.8c2.3,2.5,4,5.7,5.2,9.4
		c1.2,3.7,1.8,8,1.8,12.8v50.5h-15.3V196c0-5.9-1.3-10.4-3.9-13.4c-2.6-3-6.3-4.5-11.3-4.5c-2.2,0-4.3,0.4-6.2,1.1
		c-2,0.8-3.7,1.9-5.2,3.4c-1.5,1.5-2.7,3.4-3.5,5.6c-0.9,2.2-1.3,4.8-1.3,7.8v50.5h-15.3V196c0-6.1-1.2-10.7-3.7-13.6
		c-2.4-2.9-6-4.4-10.8-4.4c-3.3,0-6.3,0.9-9.1,2.6c-2.8,1.7-5.4,4.1-7.7,7v58.8H340.8z"/>
	<path id="XMLID_28_" class="st2" d="M516.4,180.9c-0.4,0.7-0.9,1.2-1.3,1.4c-0.5,0.3-1.1,0.4-1.8,0.4c-0.8,0-1.8-0.3-2.8-0.9
		c-1-0.6-2.2-1.2-3.7-1.9c-1.4-0.7-3.1-1.3-5-1.9c-1.9-0.6-4.2-0.9-6.9-0.9c-2.2,0-4.2,0.3-6,0.8c-1.8,0.5-3.3,1.3-4.6,2.3
		c-1.2,1-2.2,2.1-2.9,3.4c-0.7,1.3-1,2.7-1,4.3c0,2,0.6,3.6,1.8,4.9c1.2,1.3,2.7,2.4,4.6,3.4c1.9,0.9,4.1,1.8,6.5,2.5
		c2.4,0.8,4.9,1.5,7.4,2.4c2.5,0.8,5,1.8,7.4,2.8c2.4,1.1,4.6,2.4,6.5,4c1.9,1.6,3.4,3.5,4.6,5.7c1.2,2.2,1.8,5,1.8,8.2
		c0,3.7-0.7,7.1-2,10.3c-1.3,3.1-3.3,5.9-5.9,8.2c-2.6,2.3-5.8,4.1-9.6,5.4c-3.8,1.3-8.1,2-13,2c-5.5,0-10.5-0.9-15.1-2.7
		c-4.6-1.8-8.5-4.1-11.6-6.9l3.6-5.9c0.4-0.7,0.9-1.3,1.6-1.7c0.6-0.4,1.5-0.6,2.5-0.6c1,0,2,0.4,3,1.1c1,0.7,2.3,1.5,3.7,2.4
		c1.5,0.9,3.2,1.6,5.3,2.3c2.1,0.7,4.7,1.1,7.8,1.1c2.6,0,4.9-0.3,6.8-1c1.9-0.6,3.5-1.5,4.8-2.7c1.3-1.1,2.2-2.4,2.8-3.9
		c0.6-1.5,0.9-3,0.9-4.6c0-2.1-0.6-3.8-1.8-5.2c-1.2-1.4-2.7-2.6-4.6-3.5c-1.9-1-4.1-1.8-6.5-2.6c-2.4-0.7-4.9-1.5-7.5-2.3
		c-2.5-0.8-5-1.8-7.5-2.9c-2.4-1.1-4.6-2.5-6.5-4.1c-1.9-1.7-3.4-3.7-4.6-6.1c-1.2-2.4-1.8-5.3-1.8-8.7c0-3.1,0.6-6,1.9-8.8
		c1.3-2.8,3.1-5.3,5.5-7.4c2.4-2.1,5.4-3.8,9-5.1c3.6-1.3,7.6-1.9,12.2-1.9c5.3,0,10,0.8,14.2,2.5c4.2,1.7,7.9,4,10.9,6.9
		L516.4,180.9z"/>
	<path id="XMLID_30_" class="st2" d="M584.2,180.9c-0.4,0.7-0.9,1.2-1.3,1.4c-0.5,0.3-1.1,0.4-1.8,0.4c-0.8,0-1.8-0.3-2.8-0.9
		c-1-0.6-2.2-1.2-3.7-1.9c-1.4-0.7-3.1-1.3-5-1.9c-1.9-0.6-4.2-0.9-6.9-0.9c-2.2,0-4.2,0.3-6,0.8c-1.8,0.5-3.3,1.3-4.6,2.3
		c-1.2,1-2.2,2.1-2.9,3.4c-0.7,1.3-1,2.7-1,4.3c0,2,0.6,3.6,1.8,4.9c1.2,1.3,2.7,2.4,4.6,3.4c1.9,0.9,4.1,1.8,6.5,2.5
		c2.4,0.8,4.9,1.5,7.4,2.4c2.5,0.8,5,1.8,7.4,2.8c2.4,1.1,4.6,2.4,6.5,4c1.9,1.6,3.4,3.5,4.6,5.7c1.2,2.2,1.8,5,1.8,8.2
		c0,3.7-0.7,7.1-2,10.3c-1.3,3.1-3.3,5.9-5.9,8.2c-2.6,2.3-5.8,4.1-9.6,5.4c-3.8,1.3-8.1,2-13,2c-5.5,0-10.5-0.9-15.1-2.7
		c-4.6-1.8-8.5-4.1-11.6-6.9l3.6-5.9c0.4-0.7,0.9-1.3,1.6-1.7c0.6-0.4,1.5-0.6,2.5-0.6c1,0,2,0.4,3,1.1c1,0.7,2.3,1.5,3.7,2.4
		c1.5,0.9,3.2,1.6,5.3,2.3c2.1,0.7,4.7,1.1,7.8,1.1c2.6,0,4.9-0.3,6.8-1c1.9-0.6,3.5-1.5,4.8-2.7c1.3-1.1,2.2-2.4,2.8-3.9
		c0.6-1.5,0.9-3,0.9-4.6c0-2.1-0.6-3.8-1.8-5.2c-1.2-1.4-2.7-2.6-4.6-3.5c-1.9-1-4.1-1.8-6.5-2.6c-2.4-0.7-4.9-1.5-7.5-2.3
		c-2.5-0.8-5-1.8-7.5-2.9c-2.4-1.1-4.6-2.5-6.5-4.1c-1.9-1.7-3.4-3.7-4.6-6.1c-1.2-2.4-1.8-5.3-1.8-8.7c0-3.1,0.6-6,1.9-8.8
		s3.1-5.3,5.5-7.4c2.4-2.1,5.4-3.8,9-5.1c3.6-1.3,7.6-1.9,12.2-1.9c5.3,0,10,0.8,14.2,2.5c4.2,1.7,7.9,4,10.9,6.9L584.2,180.9z"/>
</g>
</svg>
