<?xml version="1.0" encoding="UTF-8"?>
<!-- Generator: Adobe Illustrator 19.1.0, SVG Export Plug-In . SVG Version: 6.00 Build 0)  -->
<svg xmlns="http://www.w3.org/2000/svg" xmlns:xlink="http://www.w3.org/1999/xlink" xmlns:dc="http://purl.org/dc/elements/1.1/" xmlns:cc="http://creativecommons.org/ns#" xmlns:rdf="http://www.w3.org/1999/02/22-rdf-syntax-ns#" version="1.1" id="DESIGNS" x="0px" y="0px" width="32px" height="32px" viewBox="0 0 32 32" style="enable-background:new 0 0 32 32;" xml:space="preserve">
<title property="dc:title">to schedule</title><desc property="dc:description">An icon for "schedule" from the Isometric series on to [icon]. Downloaded from http://www.toicon.com/icons/isometric_schedule by 142.227.100.33 on 2016-07-13. Licensed CC-BY, see http://toicon.com/license/ for details.</desc>
<g>
	<polygon class="isometric_vier" points="8,12.99 8,28.438 12,30.444 24,23.329 24,7.882 12,14.997  " style="fill: #AD9A74;"/>
	<polygon class="isometric_een" points="12,30.444 24,23.329 24,7.882 12,14.997  " style="fill: #F8F7C5;"/>
	<polygon class="isometric_negen" points="24,3.562 20.391,1.556 8,8.696 8,12.99 12,14.997 12,10.677  " style="fill: #BE1E2D;"/>
	<path class="isometric_acht" d="M24,3.562v4.32l-12,7.115v-4.32L24,3.562z M18.454,13.504c-1.548,0.894-2.639,2.881-2.639,4.821   c0,1.967,1.205,2.38,2.556,1.6c0.551-0.318,1.111-0.918,1.63-1.717c-0.082,1.405-0.519,2.863-1.713,3.553   c-0.458,0.264-0.925,0.297-1.174,0.192c-0.706-0.41-1.526,1.45-0.914,1.858c0.519,0.338,1.37,0.068,2.088-0.346   c1.713-0.989,2.659-2.782,2.95-5.001C21.497,15.474,21.384,11.812,18.454,13.504z M18.454,18.146   c-0.884,0.51-1.268,0.011-1.268-0.612c0-0.846,0.479-1.8,1.268-2.256c0.935-0.54,1.392,0,1.392,0.721S19.389,17.605,18.454,18.146z   " style="fill: #F05A28;"/>
</g>
<metadata><work rdf:about=""><format>image/svg+xml</format><type rdf:resource="http://purl.org/dc/dcmitype/StillImage"/><license rdf:resource="http://creativecommons.org/licenses/by/4.0/"/><attributionname>Jo Szczepanska</attributionname><attributionurl>http://www.toicon.com/icons/isometric_schedule</attributionurl></work></metadata></svg>
